HIERARCHY
ROOT joint_Root
{
	OFFSET 0.0 0.0 0.0
	CHANNELS 6 Xposition Yposition Zposition Zrotation Xrotation Yrotation 
	JOINT Hips
	{
		OFFSET 4.5925 91.4895 -427.239
		CHANNELS 6 Xposition Yposition Zposition Zrotation Xrotation Yrotation 
		JOINT Spine
		{
			OFFSET 15.7357 0.0 0.0
			CHANNELS 6 Xposition Yposition Zposition Zrotation Xrotation Yrotation 
			JOINT Chest
			{
				OFFSET 8.98455 -0.406207 0.0
				CHANNELS 6 Xposition Yposition Zposition Zrotation Xrotation Yrotation 
				JOINT Neck
				{
					OFFSET 16.3773 0.0 0.0
					CHANNELS 6 Xposition Yposition Zposition Zrotation Xrotation Yrotation 
					JOINT Head
					{
						OFFSET 6.45672 0.0 0.0
						CHANNELS 6 Xposition Yposition Zposition Zrotation Xrotation Yrotation 
						End Site
						{
							OFFSET 0.0 0.0 0.0
						}
					}
				}
				JOINT Shoulder_L
				{
					OFFSET 12.9942 -0.242716 4.98039
					CHANNELS 6 Xposition Yposition Zposition Zrotation Xrotation Yrotation 
					JOINT UpperArm_L
					{
						OFFSET 5.34809 0.0 0.0
						CHANNELS 6 Xposition Yposition Zposition Zrotation Xrotation Yrotation 
						JOINT LowerArm_L
						{
							OFFSET 24.3286 1.87007e-05 0.0
							CHANNELS 6 Xposition Yposition Zposition Zrotation Xrotation Yrotation 
							JOINT Hand_L
							{
								OFFSET 22.2916 0.0 0.0
								CHANNELS 6 Xposition Yposition Zposition Zrotation Xrotation Yrotation 
								End Site
								{
									OFFSET 0.0 0.0 0.0
								}
							}
						}
					}
				}
				JOINT Shoulder_R
				{
					OFFSET 12.9945 -0.242716 -4.98039
					CHANNELS 6 Xposition Yposition Zposition Zrotation Xrotation Yrotation 
					JOINT UpperArm_R
					{
						OFFSET -5.34813 0.0 0.0
						CHANNELS 6 Xposition Yposition Zposition Zrotation Xrotation Yrotation 
						JOINT LowerArm_R
						{
							OFFSET -24.3289 0.000322201 0.0
							CHANNELS 6 Xposition Yposition Zposition Zrotation Xrotation Yrotation 
							JOINT Hand_R
							{
								OFFSET -22.2915 -0.000108084 0.0
								CHANNELS 6 Xposition Yposition Zposition Zrotation Xrotation Yrotation 
								End Site
								{
									OFFSET 0.0 0.0 0.0
								}
							}
						}
					}
				}
			}
		}
		JOINT UpperLeg_L
		{
			OFFSET -2.19248 -6.46944 0.0
			CHANNELS 6 Xposition Yposition Zposition Zrotation Xrotation Yrotation 
			JOINT LowerLeg_L
			{
				OFFSET 39.0811 0.0 -1.23785e-05
				CHANNELS 6 Xposition Yposition Zposition Zrotation Xrotation Yrotation 
				JOINT Foot_L
				{
					OFFSET 40.9854 0.0 -1.26872e-05
					CHANNELS 6 Xposition Yposition Zposition Zrotation Xrotation Yrotation 
					JOINT Toes_L
					{
						OFFSET 11.7543 0.0 0.0
						CHANNELS 6 Xposition Yposition Zposition Zrotation Xrotation Yrotation 
						End Site
						{
							OFFSET 0.0 0.0 0.0
						}
					}
				}
			}
		}
		JOINT UpperLeg_R
		{
			OFFSET -2.19251 6.46944 0.0
			CHANNELS 6 Xposition Yposition Zposition Zrotation Xrotation Yrotation 
			JOINT LowerLeg_R
			{
				OFFSET -39.0811 -0.00228153 -0.0401928
				CHANNELS 6 Xposition Yposition Zposition Zrotation Xrotation Yrotation 
				JOINT Foot_R
				{
					OFFSET -40.9854 0.0 0.0
					CHANNELS 6 Xposition Yposition Zposition Zrotation Xrotation Yrotation 
					JOINT Toes_R
					{
						OFFSET -11.7543 0.0 0.0
						CHANNELS 6 Xposition Yposition Zposition Zrotation Xrotation Yrotation 
						End Site
						{
							OFFSET 0.0 0.0 0.0
						}
					}
				}
			}
		}
	}
}
MOTION
Frames:	4
Frame Time:	0.0333333
0.000000 0.000000 0.000000 0.000000 0.000000 -0.000000 -0.174668 84.886200 -0.174560 90.180100 7.129240 9.359790 15.735700 0.000005 -0.000001 99.911100 80.619300 -101.249000 8.984550 -0.406207 -0.000000 10.766200 3.171150 -2.974330 16.377300 -0.000001 -0.000001 0.281482 -10.370300 4.398910 6.456720 -0.000001 -0.000000 -2.377630 -15.435300 7.404370 12.994200 -0.242716 4.980390 -92.882800 7.222320 -68.171600 5.348090 -0.000007 -0.000001 -69.997900 3.855100 8.553250 24.328600 0.000019 0.000005 -1.673680 -4.334940 -21.135300 22.291600 -0.000001 0.000005 20.764100 5.160170 3.698940 12.994500 -0.242716 -4.980390 88.668600 7.436900 -79.820300 -5.348130 -0.000001 -0.000004 -64.580200 29.866200 -10.157700 -24.328900 0.000322 -0.000009 -0.074853 -0.191967 -21.027500 -22.291500 -0.000108 -0.000004 15.360900 5.421650 -3.654570 -2.192480 -6.469440 -0.000000 -176.271000 -9.711470 -14.157700 39.081100 -0.000007 -0.000012 -0.163313 0.116909 54.403700 40.985400 -0.000006 -0.000013 5.185230 11.205600 -81.571000 11.754300 -0.000000 0.000003 -0.000050 -0.000569 -16.599600 -2.192510 6.469440 -0.000001 176.021000 15.635900 167.362000 -39.081100 -0.002282 -0.040193 0.103544 -0.069864 55.145500 -40.985400 0.000008 0.000006 3.531300 -2.290830 -81.447100 -11.754300 -0.000006 -0.000006 -0.578871 -0.709733 -17.576900
0.000000 0.000000 0.000000 0.000000 0.000000 -0.000000 0.550355 86.836800 0.429875 90.628400 3.150910 8.861450 15.735700 0.000005 -0.000001 99.850900 81.499300 -100.571000 8.984550 -0.406207 -0.000000 9.011880 2.885630 -1.667220 16.377300 -0.000001 -0.000001 0.808680 -9.385760 4.257590 6.456720 -0.000001 -0.000000 -1.438380 -13.483300 5.487340 12.994200 -0.242716 4.980390 -92.228700 5.336750 -67.294500 5.348090 -0.000007 -0.000001 -70.899300 -3.173170 10.370200 24.328600 0.000019 0.000005 -6.247530 -14.658300 -23.394100 22.291600 -0.000001 0.000005 19.478200 5.167930 3.511030 12.994500 -0.242716 -4.980390 88.669000 6.957740 -79.142600 -5.348130 -0.000001 -0.000004 -64.941600 29.908600 -10.338500 -24.328900 0.000322 -0.000009 0.378498 0.962991 -21.512600 -22.291500 -0.000108 -0.000004 15.002900 5.411570 -3.317340 -2.192480 -6.469440 -0.000000 -177.172000 -11.060800 -10.202800 39.081100 -0.000007 -0.000012 -0.191051 0.174972 47.516000 40.985400 -0.000006 -0.000013 3.979810 8.898230 -78.838400 11.754300 -0.000000 0.000003 -0.000041 -0.000478 -16.596100 -2.192510 6.469440 -0.000001 175.174000 13.921800 169.779000 -39.081100 -0.002282 -0.040193 0.071197 -0.058744 49.154500 -40.985400 0.000008 0.000006 3.862880 0.466004 -78.062500 -11.754300 -0.000006 -0.000006 -0.646152 -0.789020 -17.982300
0.000000 0.000000 0.000000 0.000000 0.000000 -0.000000 0.941420 88.856100 0.789537 90.360800 -0.069211 6.897420 15.735700 0.000005 -0.000001 100.432000 83.054100 -100.175000 8.984550 -0.406207 -0.000000 5.894890 2.504720 0.385008 16.377300 -0.000001 -0.000001 2.309940 -7.993090 3.557210 6.456720 -0.000001 -0.000000 -0.719545 -11.125200 2.529290 12.994200 -0.242716 4.980390 -91.583800 3.628680 -66.401100 5.348090 -0.000007 -0.000001 -66.001700 -10.283200 7.040980 24.328600 0.000019 0.000005 -3.703170 -8.015490 -24.899700 22.291600 -0.000001 0.000005 19.442100 5.162380 3.645560 12.994500 -0.242716 -4.980390 88.751100 6.039150 -78.292700 -5.348130 -0.000001 -0.000004 -66.115700 29.012500 -8.658550 -24.328900 0.000322 -0.000009 0.525709 1.200710 -23.690000 -22.291500 -0.000108 -0.000004 15.076000 5.422830 -3.694590 -2.192480 -6.469440 -0.000000 -177.655000 -11.661900 -7.796810 39.081100 -0.000007 -0.000012 -0.182182 0.219479 39.695300 40.985400 -0.000006 -0.000013 2.762810 6.676880 -75.290500 11.754300 -0.000000 0.000003 -0.000041 -0.000480 -16.596300 -2.192510 6.469440 -0.000001 175.393000 13.808300 170.874000 -39.081100 -0.002282 -0.040193 0.044658 -0.045500 42.289200 -40.985400 0.000008 0.000006 4.346450 3.923430 -73.456400 -11.754300 -0.000006 -0.000006 -0.770402 -0.927488 -19.023900
0.000000 0.000000 0.000000 0.000000 0.000000 -0.000000 0.998315 90.310000 0.993530 90.021400 -2.493980 4.891130 15.735700 0.000005 -0.000001 101.515000 84.533400 -100.394000 8.984550 -0.406207 -0.000000 2.929100 2.133160 2.186730 16.377300 -0.000001 -0.000001 4.181750 -6.713750 2.813360 6.456720 -0.000001 -0.000000 -0.435690 -8.607430 -0.522192 12.994200 -0.242716 4.980390 -90.888700 2.008570 -66.126600 5.348090 -0.000007 -0.000001 -57.822700 -19.793900 0.489904 24.328600 0.000019 0.000005 -5.291830 -8.496350 -32.082700 22.291600 -0.000001 0.000005 20.288700 5.203780 2.624600 12.994500 -0.242716 -4.980390 88.863400 4.981550 -77.129700 -5.348130 -0.000001 -0.000004 -67.034700 28.327900 -7.076940 -24.328900 0.000322 -0.000009 -0.012506 -0.023560 -25.853000 -22.291500 -0.000108 -0.000004 14.324000 5.448180 -4.574750 -2.192480 -6.469440 -0.000000 -177.886000 -11.789300 -6.202530 39.081100 -0.000007 -0.000012 -0.156235 0.239939 33.070300 40.985400 -0.000006 -0.000013 1.787440 4.872570 -72.211600 11.754300 -0.000000 0.000003 -0.000033 -0.000396 -16.593000 -2.192510 6.469440 -0.000001 175.779000 15.117500 171.612000 -39.081100 -0.002282 -0.040193 0.029585 -0.035772 36.320300 -40.985400 0.000008 0.000006 4.702790 7.634930 -69.982400 -11.754300 -0.000006 -0.000006 -0.703407 -0.846379 -19.594400
